<?xml version="1.0" encoding="UTF-8"?>
<svg version="1.1" xmlns="http://www.w3.org/2000/svg" width="219" height="219">
<path d="M0 0 C5.22738241 4.100478 10.02787548 8.59663116 14.80859375 13.203125 C15.46601563 13.79738281 16.1234375 14.39164063 16.80078125 15.00390625 C33.403854 30.42104524 44.50703877 56.29442349 46.04589844 78.65063477 C47.20321582 110.39449904 41.33279754 139.40571171 19.24609375 163.515625 C17.44724733 165.42509485 15.62891789 167.3139535 13.80859375 169.203125 C13.21433594 169.86054688 12.62007812 170.51796875 12.0078125 171.1953125 C-0.90330654 185.09959454 -20.06774152 193.66119541 -38.19140625 198.203125 C-38.90844727 198.38858887 -39.62548828 198.57405273 -40.36425781 198.76513672 C-47.92577026 200.5143021 -55.46041172 200.60119494 -63.19140625 200.578125 C-63.87638184 200.57758118 -64.56135742 200.57703735 -65.26708984 200.57647705 C-76.30611435 200.5362239 -86.66674702 199.72743749 -97.19140625 196.203125 C-97.83916016 195.98881836 -98.48691406 195.77451172 -99.15429688 195.55371094 C-127.63393041 185.8002173 -150.16557241 165.21215713 -163.44091797 138.36962891 C-166.8041171 131.24183308 -169.27734471 123.84729799 -171.19140625 116.203125 C-171.37614502 115.48390869 -171.56088379 114.76469238 -171.7512207 114.02368164 C-177.99633952 86.88326149 -172.59514873 56.10795531 -157.9921875 32.546875 C-153.40276474 25.52048384 -147.98293044 19.25552865 -142.19140625 13.203125 C-141.56878906 12.51734375 -140.94617188 11.8315625 -140.3046875 11.125 C-126.88412499 -3.1677584 -107.99339381 -12.08895417 -89.19140625 -16.796875 C-88.47218994 -16.98161377 -87.75297363 -17.16635254 -87.01196289 -17.35668945 C-57.63672056 -24.11604975 -24.51660577 -17.27383596 0 0 Z " fill="#1779CF" transform="translate(173.19140625,18.796875)"/>
<path d="M0 0 C0.67671753 -0.00287018 1.35343506 -0.00574036 2.05065918 -0.00869751 C3.47958209 -0.01073647 4.90853302 -0.00521819 6.33740234 0.00732422 C8.52374725 0.02338239 10.70824379 0.00747216 12.89453125 -0.01171875 C14.28385824 -0.00973629 15.67318409 -0.00589254 17.0625 0 C18.32642578 0.00338379 19.59035156 0.00676758 20.89257812 0.01025391 C24.03125 0.3984375 24.03125 0.3984375 25.94848633 1.60424805 C27.40646968 4.02019385 27.37300303 5.69067935 27.32421875 8.50390625 C27.31455078 9.48681641 27.30488281 10.46972656 27.29492188 11.48242188 C27.26978516 12.50658203 27.24464844 13.53074219 27.21875 14.5859375 C27.19844727 16.13958008 27.19844727 16.13958008 27.17773438 17.72460938 C27.14236389 20.28307449 27.09300544 22.8404953 27.03125 25.3984375 C28.07990234 25.37749023 29.12855469 25.35654297 30.20898438 25.33496094 C34.13006735 25.26211258 38.05109149 25.21647639 41.97265625 25.17871094 C43.66416511 25.1586969 45.35560567 25.13147677 47.046875 25.09667969 C49.48975554 25.04770685 51.93171511 25.02536717 54.375 25.0078125 C55.12116577 24.98716736 55.86733154 24.96652222 56.6361084 24.94525146 C62.76565706 24.94267991 68.06946489 26.59614732 72.59875488 30.88153076 C76.33671254 35.19085671 77.15834372 38.37772516 77.12890625 43.94140625 C77.12407227 45.55112305 77.12407227 45.55112305 77.11914062 47.19335938 C77.10657227 48.87268555 77.10657227 48.87268555 77.09375 50.5859375 C77.08923828 51.71708984 77.08472656 52.84824219 77.08007812 54.01367188 C77.06828498 56.80864677 77.0518265 59.6035157 77.03125 62.3984375 C77.6512085 62.37885986 78.27116699 62.35928223 78.90991211 62.33911133 C80.12819702 62.31627075 80.12819702 62.31627075 81.37109375 62.29296875 C82.17667725 62.27339111 82.98226074 62.25381348 83.81225586 62.23364258 C86.03125 62.3984375 86.03125 62.3984375 88.59375 64.0859375 C90.33539195 66.88770932 90.67869805 68.16119725 90.03125 71.3984375 C88.59375 73.7109375 88.59375 73.7109375 86.03125 75.3984375 C83.81225586 75.56323242 83.81225586 75.56323242 81.37109375 75.50390625 C80.55890381 75.4886792 79.74671387 75.47345215 78.90991211 75.45776367 C78.28995361 75.43818604 77.66999512 75.4186084 77.03125 75.3984375 C77.0626709 76.38070312 77.0626709 76.38070312 77.09472656 77.3828125 C77.17855383 80.38786078 77.23011895 83.39266214 77.28125 86.3984375 C77.31476563 87.42839844 77.34828125 88.45835937 77.3828125 89.51953125 C77.46587244 96.03973675 76.85986045 100.98945656 73.03125 106.3984375 C67.51727769 111.77102591 62.26333568 112.69783089 54.77197266 112.68896484 C53.54416328 112.69904068 53.54416328 112.69904068 52.29154968 112.70932007 C49.59274176 112.7282767 46.89418281 112.73222302 44.1953125 112.734375 C42.31350605 112.74080437 40.4317006 112.74753284 38.54989624 112.75454712 C34.60745934 112.76651391 30.66511003 112.77022854 26.72265625 112.76904297 C21.67986524 112.76883977 16.63763774 112.79614519 11.59498024 112.83058739 C7.70868366 112.85286384 3.82252256 112.85688029 -0.06383133 112.85582352 C-1.92251147 112.85817822 -3.78119542 112.86699438 -5.63981247 112.88248825 C-8.24383366 112.90216423 -10.84664135 112.89630437 -13.45068359 112.88427734 C-14.21247421 112.89551636 -14.97426483 112.90675537 -15.75914001 112.91833496 C-21.24809833 112.85416725 -24.42434095 111.49698127 -28.96875 108.3984375 C-33.43387262 103.6919569 -35.23631032 99.34508651 -35.1640625 92.87890625 C-35.15439453 91.3465332 -35.15439453 91.3465332 -35.14453125 89.78320312 C-35.12777344 88.72810547 -35.11101563 87.67300781 -35.09375 86.5859375 C-35.08472656 85.51150391 -35.07570313 84.43707031 -35.06640625 83.33007812 C-35.04290306 80.68596896 -35.01004575 78.04231878 -34.96875 75.3984375 C-35.5887085 75.41801514 -36.20866699 75.43759277 -36.84741211 75.45776367 C-38.06569702 75.48060425 -38.06569702 75.48060425 -39.30859375 75.50390625 C-40.51696899 75.53327271 -40.51696899 75.53327271 -41.74975586 75.56323242 C-43.96875 75.3984375 -43.96875 75.3984375 -46.53125 73.7109375 C-48.27289195 70.90916568 -48.61619805 69.63567775 -47.96875 66.3984375 C-46.53125 64.0859375 -46.53125 64.0859375 -43.96875 62.3984375 C-41.74975586 62.23364258 -41.74975586 62.23364258 -39.30859375 62.29296875 C-38.49640381 62.3081958 -37.68421387 62.32342285 -36.84741211 62.33911133 C-36.22745361 62.35868896 -35.60749512 62.3782666 -34.96875 62.3984375 C-34.98969727 61.70806396 -35.01064453 61.01769043 -35.03222656 60.30639648 C-35.11586095 57.14972757 -35.16755953 53.99329248 -35.21875 50.8359375 C-35.26902344 49.20688477 -35.26902344 49.20688477 -35.3203125 47.54492188 C-35.4133048 39.89630506 -34.65269404 35.41564787 -29.37109375 29.65625 C-24.03965529 25.53327092 -20.12391306 25.25824842 -13.58203125 25.30078125 C-12.76502243 25.3021962 -11.94801361 25.30361115 -11.10624695 25.30506897 C-8.49787732 25.31066456 -5.88959366 25.32321621 -3.28125 25.3359375 C-1.51237103 25.34095307 0.25650928 25.34551588 2.02539062 25.34960938 C6.36071019 25.36063254 10.69596552 25.37789412 15.03125 25.3984375 C15.03125 21.1084375 15.03125 16.8184375 15.03125 12.3984375 C13.47792969 12.43324219 11.92460938 12.46804687 10.32421875 12.50390625 C8.28907329 12.5320419 6.25391617 12.5593423 4.21875 12.5859375 C2.68250977 12.62364258 2.68250977 12.62364258 1.11523438 12.66210938 C-0.35913086 12.67661133 -0.35913086 12.67661133 -1.86328125 12.69140625 C-3.22223511 12.71497192 -3.22223511 12.71497192 -4.60864258 12.73901367 C-6.96875 12.3984375 -6.96875 12.3984375 -8.7644043 11.06762695 C-10.6316796 8.47963562 -10.35542918 6.49187093 -9.96875 3.3984375 C-7.44923871 -0.45207235 -4.30910448 0.01153636 0 0 Z " fill="#1A7DCD" transform="translate(88.96875,53.6015625)"/>
<path d="M0 0 C0.67671753 -0.00287018 1.35343506 -0.00574036 2.05065918 -0.00869751 C3.47958209 -0.01073647 4.90853302 -0.00521819 6.33740234 0.00732422 C8.52374725 0.02338239 10.70824379 0.00747216 12.89453125 -0.01171875 C14.28385824 -0.00973629 15.67318409 -0.00589254 17.0625 0 C18.32642578 0.00338379 19.59035156 0.00676758 20.89257812 0.01025391 C24.03125 0.3984375 24.03125 0.3984375 25.94848633 1.60424805 C27.40646968 4.02019385 27.37300303 5.69067935 27.32421875 8.50390625 C27.31455078 9.48681641 27.30488281 10.46972656 27.29492188 11.48242188 C27.26978516 12.50658203 27.24464844 13.53074219 27.21875 14.5859375 C27.19844727 16.13958008 27.19844727 16.13958008 27.17773438 17.72460938 C27.14236389 20.28307449 27.09300544 22.8404953 27.03125 25.3984375 C28.07990234 25.37749023 29.12855469 25.35654297 30.20898438 25.33496094 C34.13006735 25.26211258 38.05109149 25.21647639 41.97265625 25.17871094 C43.66416511 25.1586969 45.35560567 25.13147677 47.046875 25.09667969 C49.48975554 25.04770685 51.93171511 25.02536717 54.375 25.0078125 C55.12116577 24.98716736 55.86733154 24.96652222 56.6361084 24.94525146 C62.76565706 24.94267991 68.06946489 26.59614732 72.59875488 30.88153076 C76.33671254 35.19085671 77.15834372 38.37772516 77.12890625 43.94140625 C77.12407227 45.55112305 77.12407227 45.55112305 77.11914062 47.19335938 C77.10657227 48.87268555 77.10657227 48.87268555 77.09375 50.5859375 C77.08923828 51.71708984 77.08472656 52.84824219 77.08007812 54.01367188 C77.06828498 56.80864677 77.0518265 59.6035157 77.03125 62.3984375 C77.6512085 62.37885986 78.27116699 62.35928223 78.90991211 62.33911133 C80.12819702 62.31627075 80.12819702 62.31627075 81.37109375 62.29296875 C82.17667725 62.27339111 82.98226074 62.25381348 83.81225586 62.23364258 C86.03125 62.3984375 86.03125 62.3984375 88.59375 64.0859375 C90.33539195 66.88770932 90.67869805 68.16119725 90.03125 71.3984375 C88.59375 73.7109375 88.59375 73.7109375 86.03125 75.3984375 C83.81225586 75.56323242 83.81225586 75.56323242 81.37109375 75.50390625 C80.55890381 75.4886792 79.74671387 75.47345215 78.90991211 75.45776367 C78.28995361 75.43818604 77.66999512 75.4186084 77.03125 75.3984375 C77.0626709 76.38070312 77.0626709 76.38070312 77.09472656 77.3828125 C77.17855383 80.38786078 77.23011895 83.39266214 77.28125 86.3984375 C77.31476563 87.42839844 77.34828125 88.45835937 77.3828125 89.51953125 C77.46587244 96.03973675 76.85986045 100.98945656 73.03125 106.3984375 C67.51727769 111.77102591 62.26333568 112.69783089 54.77197266 112.68896484 C53.54416328 112.69904068 53.54416328 112.69904068 52.29154968 112.70932007 C49.59274176 112.7282767 46.89418281 112.73222302 44.1953125 112.734375 C42.31350605 112.74080437 40.4317006 112.74753284 38.54989624 112.75454712 C34.60745934 112.76651391 30.66511003 112.77022854 26.72265625 112.76904297 C21.67986524 112.76883977 16.63763774 112.79614519 11.59498024 112.83058739 C7.70868366 112.85286384 3.82252256 112.85688029 -0.06383133 112.85582352 C-1.92251147 112.85817822 -3.78119542 112.86699438 -5.63981247 112.88248825 C-8.24383366 112.90216423 -10.84664135 112.89630437 -13.45068359 112.88427734 C-14.21247421 112.89551636 -14.97426483 112.90675537 -15.75914001 112.91833496 C-21.24809833 112.85416725 -24.42434095 111.49698127 -28.96875 108.3984375 C-33.43387262 103.6919569 -35.23631032 99.34508651 -35.1640625 92.87890625 C-35.15439453 91.3465332 -35.15439453 91.3465332 -35.14453125 89.78320312 C-35.12777344 88.72810547 -35.11101563 87.67300781 -35.09375 86.5859375 C-35.08472656 85.51150391 -35.07570313 84.43707031 -35.06640625 83.33007812 C-35.04290306 80.68596896 -35.01004575 78.04231878 -34.96875 75.3984375 C-35.5887085 75.41801514 -36.20866699 75.43759277 -36.84741211 75.45776367 C-38.06569702 75.48060425 -38.06569702 75.48060425 -39.30859375 75.50390625 C-40.51696899 75.53327271 -40.51696899 75.53327271 -41.74975586 75.56323242 C-43.96875 75.3984375 -43.96875 75.3984375 -46.53125 73.7109375 C-48.27289195 70.90916568 -48.61619805 69.63567775 -47.96875 66.3984375 C-46.53125 64.0859375 -46.53125 64.0859375 -43.96875 62.3984375 C-41.74975586 62.23364258 -41.74975586 62.23364258 -39.30859375 62.29296875 C-38.49640381 62.3081958 -37.68421387 62.32342285 -36.84741211 62.33911133 C-36.22745361 62.35868896 -35.60749512 62.3782666 -34.96875 62.3984375 C-34.98969727 61.70806396 -35.01064453 61.01769043 -35.03222656 60.30639648 C-35.11586095 57.14972757 -35.16755953 53.99329248 -35.21875 50.8359375 C-35.26902344 49.20688477 -35.26902344 49.20688477 -35.3203125 47.54492188 C-35.4133048 39.89630506 -34.65269404 35.41564787 -29.37109375 29.65625 C-24.03965529 25.53327092 -20.12391306 25.25824842 -13.58203125 25.30078125 C-12.76502243 25.3021962 -11.94801361 25.30361115 -11.10624695 25.30506897 C-8.49787732 25.31066456 -5.88959366 25.32321621 -3.28125 25.3359375 C-1.51237103 25.34095307 0.25650928 25.34551588 2.02539062 25.34960938 C6.36071019 25.36063254 10.69596552 25.37789412 15.03125 25.3984375 C15.03125 21.1084375 15.03125 16.8184375 15.03125 12.3984375 C13.47792969 12.43324219 11.92460938 12.46804687 10.32421875 12.50390625 C8.28907329 12.5320419 6.25391617 12.5593423 4.21875 12.5859375 C2.68250977 12.62364258 2.68250977 12.62364258 1.11523438 12.66210938 C-0.35913086 12.67661133 -0.35913086 12.67661133 -1.86328125 12.69140625 C-3.22223511 12.71497192 -3.22223511 12.71497192 -4.60864258 12.73901367 C-6.96875 12.3984375 -6.96875 12.3984375 -8.7644043 11.06762695 C-10.6316796 8.47963562 -10.35542918 6.49187093 -9.96875 3.3984375 C-7.44923871 -0.45207235 -4.30910448 0.01153636 0 0 Z M-21.4197998 39.09082031 C-23.30481608 41.89910684 -23.47512264 43.4712797 -23.48632812 46.83789062 C-23.49893677 47.92581909 -23.51154541 49.01374756 -23.52453613 50.13464355 C-23.51643921 51.30450806 -23.50834229 52.47437256 -23.5 53.6796875 C-23.5038269 54.88532349 -23.50765381 56.09095947 -23.51159668 57.33312988 C-23.51431826 59.88176305 -23.50694005 62.43042404 -23.49023438 64.97900391 C-23.4688304 68.88377052 -23.49003003 72.78669698 -23.515625 76.69140625 C-23.51298177 79.16667073 -23.5078569 81.64193407 -23.5 84.1171875 C-23.50809692 85.287052 -23.51619385 86.4569165 -23.52453613 87.66223145 C-23.51192749 88.75015991 -23.49931885 89.83808838 -23.48632812 90.95898438 C-23.48314575 91.9151062 -23.47996338 92.87122803 -23.47668457 93.85632324 C-22.78971168 97.29448965 -21.8529325 98.40698842 -18.96875 100.3984375 C-16.25495254 100.79326656 -13.9462379 100.9462025 -11.234375 100.91601562 C-10.07270813 100.92652954 -10.07270813 100.92652954 -8.88757324 100.93725586 C-6.33093268 100.95484249 -3.77540156 100.94321139 -1.21875 100.9296875 C0.55957247 100.93238224 2.33789351 100.93626451 4.11621094 100.94128418 C7.84193968 100.94718011 11.56728464 100.93861337 15.29296875 100.91992188 C20.06824287 100.89713209 24.84261776 100.91025469 29.61785889 100.93421173 C33.28961968 100.94866725 36.96116735 100.94406489 40.63293457 100.93370056 C42.39359646 100.93103258 44.15427771 100.93430554 45.91491699 100.94361877 C48.37609087 100.95378058 50.8358095 100.93829003 53.296875 100.91601562 C54.0242688 100.92411255 54.7516626 100.93220947 55.50109863 100.94055176 C58.79745244 100.88529348 60.74368855 100.59699081 63.4822998 98.70605469 C65.36731608 95.89776816 65.53762264 94.3255953 65.54882812 90.95898438 C65.56143677 89.87105591 65.57404541 88.78312744 65.58703613 87.66223145 C65.57893921 86.49236694 65.57084229 85.32250244 65.5625 84.1171875 C65.5663269 82.91155151 65.57015381 81.70591553 65.57409668 80.46374512 C65.57681826 77.91511195 65.56944005 75.36645096 65.55273438 72.81787109 C65.5313304 68.91310448 65.55253003 65.01017802 65.578125 61.10546875 C65.57548177 58.63020427 65.5703569 56.15494093 65.5625 53.6796875 C65.57059692 52.509823 65.57869385 51.3399585 65.58703613 50.13464355 C65.57442749 49.04671509 65.56181885 47.95878662 65.54882812 46.83789062 C65.54564575 45.8817688 65.54246338 44.92564697 65.53918457 43.94055176 C64.85221168 40.50238535 63.9154325 39.38988658 61.03125 37.3984375 C58.31745254 37.00360844 56.0087379 36.8506725 53.296875 36.88085938 C52.52243042 36.8738501 51.74798584 36.86684082 50.95007324 36.85961914 C48.39343268 36.84203251 45.83790156 36.85366361 43.28125 36.8671875 C41.50292753 36.86449276 39.72460649 36.86061049 37.94628906 36.85559082 C34.22056032 36.84969489 30.49521536 36.85826163 26.76953125 36.87695312 C21.99425713 36.89974291 17.21988224 36.88662031 12.44464111 36.86266327 C8.77288032 36.84820775 5.10133265 36.85281011 1.42956543 36.86317444 C-0.33109646 36.86584242 -2.09177771 36.86256946 -3.85241699 36.85325623 C-6.31359087 36.84309442 -8.7733095 36.85858497 -11.234375 36.88085938 C-11.9617688 36.87276245 -12.6891626 36.86466553 -13.43859863 36.85632324 C-16.73495244 36.91158152 -18.68118855 37.19988419 -21.4197998 39.09082031 Z " fill="#FDFEFE" transform="translate(88.96875,53.6015625)"/>
<path d="M0 0 C2.08097165 1.56699305 2.89632598 2.45593961 3.38818359 5.03710938 C3.39156738 5.79830078 3.39495117 6.55949219 3.3984375 7.34375 C3.40230469 8.17777344 3.40617187 9.01179688 3.41015625 9.87109375 C3.39855469 10.73863281 3.38695313 11.60617188 3.375 12.5 C3.38660156 13.36753906 3.39820312 14.23507813 3.41015625 15.12890625 C3.40628906 15.96292969 3.40242188 16.79695313 3.3984375 17.65625 C3.39505371 18.41744141 3.39166992 19.17863281 3.38818359 19.96289062 C2.89629212 22.54423808 2.07850691 23.42997951 0 25 C-3 25.4375 -3 25.4375 -6 25 C-8.04350244 23.20593918 -8.89427133 21.73201663 -9.28417969 19.0324707 C-9.40438142 16.66002753 -9.40895735 14.31262782 -9.375 11.9375 C-9.38660156 11.12216797 -9.39820312 10.30683594 -9.41015625 9.46679688 C-9.40628906 8.68240234 -9.40242188 7.89800781 -9.3984375 7.08984375 C-9.39336182 6.02044556 -9.39336182 6.02044556 -9.38818359 4.92944336 C-8.35186331 -0.22152468 -4.63027593 -0.57878449 0 0 Z " fill="#FAFCFE" transform="translate(94,110)"/>
<path d="M0 0 C3.4375 0.8125 3.4375 0.8125 5.4375 2.8125 C5.90726499 5.74872857 5.80785272 8.71789044 5.8125 11.6875 C5.83699219 12.50347656 5.86148438 13.31945312 5.88671875 14.16015625 C5.91607857 20.1593456 5.91607857 20.1593456 3.57421875 23.35546875 C0.91909469 25.16600124 -0.41109317 25.37813712 -3.5625 24.8125 C-5.610833 23.2318482 -6.46132397 22.34345145 -6.95068359 19.77539062 C-6.95406738 19.01419922 -6.95745117 18.25300781 -6.9609375 17.46875 C-6.96480469 16.63472656 -6.96867187 15.80070312 -6.97265625 14.94140625 C-6.95525391 13.64009766 -6.95525391 13.64009766 -6.9375 12.3125 C-6.94910156 11.44496094 -6.96070312 10.57742187 -6.97265625 9.68359375 C-6.96685547 8.43255859 -6.96685547 8.43255859 -6.9609375 7.15625 C-6.95755371 6.39505859 -6.95416992 5.63386719 -6.95068359 4.84960938 C-6.12340248 0.50820459 -4.21693901 -0.22194416 0 0 Z " fill="#FBFCFE" transform="translate(129.5625,110.1875)"/>
</svg>
